# xmcd CD database file
#
# Track frame offsets:
#	150
#	10839
#	21337
#	32478
#	46140
#	57660
#	69762
#	83097
#	96521
#	105813
#	118270
#	128310
#
# Disc length: 1879 seconds
#
# Revision: 1
# Processed by: cddbd v1.5.2PL0 Copyright (c) Steve Scherf et al.
# Submitted via: CDex 1.51
#
DISCID=8c07550c
DTITLE=Various Artist - Country Hits of the '60s and '70s disc1
DYEAR=2014
DGENRE=Country
TTITLE0=Hank Locklin - Please Help Me, I'm Falling
TTITLE1=Jim Reeves - He'll Have to Go
TTITLE2=Floyd Cramer - Last Date
TTITLE3=Jimmy Dean - Big Bad John
TTITLE4=Dan Gibson - Sea of Heartbreak
TTITLE5=Stonewall Jackson - A Wound Time Can't Escape
TTITLE6=Carl Butter and Pearl - Don't Let Me Cross Over
TTITLE7=Claude King - Wolverton Mountain
TTITLE8=Flatt and Scruggs - The Ballad of Jed Clampett
TTITLE9=Hank Snow - I've Been Everywhere
TTITLE10=George Hamilton IV - Abilene
TTITLE11=Bobby Bare - Detroit City
EXTD=YEAR: 2014
EXTT0=
EXTT1=
EXTT2=
EXTT3=
EXTT4=
EXTT5=
EXTT6=
EXTT7=
EXTT8=
EXTT9=
EXTT10=
EXTT11=
PLAYORDER=
